<?xml version="1.0" encoding="utf-8"?>
<!-- Generator: Adobe Illustrator 24.1.2, SVG Export Plug-In . SVG Version: 6.00 Build 0)  -->
<svg version="1.1" id="Layer_1" xmlns="http://www.w3.org/2000/svg" xmlns:xlink="http://www.w3.org/1999/xlink" x="0px" y="0px"
	 viewBox="0 0 28 24" style="enable-background:new 0 0 28 24;" xml:space="preserve">
<style type="text/css">
	.st0{fill:#FFFFFF;}
</style>
<path class="st0" d="M23.5,5.8C23,5.3,22.3,5,21.6,5H6.2L5.7,3.2c-0.3-1-1.2-1.8-2.4-1.8H0.8C0.4,1.4,0,1.7,0,2.2
	c0,0.4,0.4,0.7,0.8,0.7h2.6c0.4,0,0.7,0.2,0.8,0.6l3.1,11.7c0.3,1,1.2,1.8,2.4,1.8h10.1c1.1,0,2.1-0.7,2.4-1.8l1.9-7.4
	C24.1,7.1,24,6.4,23.5,5.8L23.5,5.8z M22.4,7.5l-1.9,7.4c-0.1,0.4-0.4,0.6-0.8,0.6H9.6c-0.4,0-0.7-0.2-0.8-0.6L6.6,6.5h15
	c0.3,0,0.5,0.1,0.7,0.3C22.4,7,22.5,7.2,22.4,7.5L22.4,7.5z"/>
<path class="st0" d="M10.1,18c-1.4,0-2.6,1.1-2.6,2.5S8.7,23,10.1,23s2.6-1.1,2.6-2.5C12.8,19.1,11.6,18,10.1,18L10.1,18z
	 M10.1,21.5c-0.6,0-1-0.4-1-1s0.5-1,1-1c0.6,0,1,0.4,1,1C11.2,21,10.7,21.5,10.1,21.5z"/>
<path class="st0" d="M18.8,18c-1.4,0-2.6,1.1-2.6,2.5s1.2,2.5,2.6,2.5s2.6-1.1,2.6-2.5S20.3,18,18.8,18z M18.8,21.5
	c-0.6,0-1-0.4-1-1s0.5-1,1-1c0.6,0,1,0.4,1,1C19.9,21,19.4,21.5,18.8,21.5z"/>
</svg>
